<?xml version="1.0" encoding="UTF-8" standalone="no"?>
<!DOCTYPE svg PUBLIC "-//W3C//DTD SVG 1.1//EN"
 "http://www.w3.org/Graphics/SVG/1.1/DTD/svg11.dtd">
<!-- Generated by graphviz version 2.26.3 (20100126.1600)
 -->
<!-- Title: G Pages: 1 -->
<svg width="472pt" height="368pt"
 viewBox="0.00 0.00 472.00 368.00" xmlns="http://www.w3.org/2000/svg" xmlns:xlink="http://www.w3.org/1999/xlink">
<g id="graph1" class="graph" transform="scale(1 1) rotate(0) translate(4 364)">
<title>G</title>
<polygon fill="white" stroke="white" points="-4,5 -4,-364 469,-364 469,5 -4,5"/>
<g id="graph2" class="cluster"><title>cluster_global</title>
<polyline fill="none" stroke="gray" points="246,-8 444,-8 "/>
<path fill="none" stroke="gray" d="M444,-8C450,-8 456,-14 456,-20"/>
<polyline fill="none" stroke="gray" points="456,-20 456,-340 "/>
<path fill="none" stroke="gray" d="M456,-340C456,-346 450,-352 444,-352"/>
<polyline fill="none" stroke="gray" points="444,-352 246,-352 "/>
<path fill="none" stroke="gray" d="M246,-352C240,-352 234,-346 234,-340"/>
<polyline fill="none" stroke="gray" points="234,-340 234,-20 "/>
<path fill="none" stroke="gray" d="M234,-20C234,-14 240,-8 246,-8"/>
<text text-anchor="middle" x="345" y="-338.1" font-family="Times Roman,serif" font-size="11.00" fill="gray">global</text>
</g>
<!-- \\API_Con_Mngr_Error -->
<g id="node2" class="node"><title>\\API_Con_Mngr_Error</title>
<a xlink:href="class-api-con-mngr-error.html" xlink:title="API_Con_Mngr_Error" target="_parent">
<polygon fill="none" stroke="black" points="414,-322 276,-322 276,-286 414,-286 414,-322"/>
<text text-anchor="middle" x="345" y="-301.1" font-family="Courier,monospace" font-size="11.00">API_Con_Mngr_Error</text>
</a>
</g>
<!-- \\WP_Error -->
<g id="node9" class="node"><title>\\WP_Error</title>
<ellipse fill="none" stroke="black" cx="85" cy="-304" rx="62.2254" ry="18.3848"/>
<text text-anchor="middle" x="85" y="-300.4" font-family="Times Roman,serif" font-size="14.00" fill="gray">\WP_Error</text>
</g>
<!-- \\API_Con_Mngr_Error&#45;&gt;\\WP_Error -->
<g id="edge3" class="edge"><title>\\API_Con_Mngr_Error&#45;&gt;\\WP_Error</title>
<path fill="none" stroke="black" d="M275.666,-304C239.09,-304 194.255,-304 157.253,-304"/>
<polygon fill="none" stroke="black" points="157.038,-300.5 147.038,-304 157.038,-307.5 157.038,-300.5"/>
</g>
<!-- \\API_Con_Mngr_Module -->
<g id="node3" class="node"><title>\\API_Con_Mngr_Module</title>
<a xlink:href="class-api-con-mngr-module.html" xlink:title="«abstract»&lt;br/&gt;API_Con_Mngr_Module" target="_parent">
<polygon fill="none" stroke="black" points="418,-268 272,-268 272,-232 418,-232 418,-268"/>
<text text-anchor="start" x="311" y="-255.433" font-family="Courier,monospace" font-size="11.00">«abstract»</text>
<text text-anchor="start" x="280.5" y="-242.233" font-family="Courier,monospace" font-size="11.00">API_Con_Mngr_Module</text>
</a>
</g>
<!-- \\API_Con_Mngr_View -->
<g id="node4" class="node"><title>\\API_Con_Mngr_View</title>
<a xlink:href="class-api-con-mngr-view.html" xlink:title="API_Con_Mngr_View" target="_parent">
<polygon fill="none" stroke="black" points="410,-214 280,-214 280,-178 410,-178 410,-214"/>
<text text-anchor="middle" x="345" y="-193.1" font-family="Courier,monospace" font-size="11.00">API_Con_Mngr_View</text>
</a>
</g>
<!-- \\API_Connection_Manager -->
<g id="node5" class="node"><title>\\API_Connection_Manager</title>
<a xlink:href="class-api-connection-manager.html" xlink:title="API_Connection_Manager" target="_parent">
<polygon fill="none" stroke="black" points="427,-160 263,-160 263,-124 427,-124 427,-160"/>
<text text-anchor="middle" x="345" y="-139.1" font-family="Courier,monospace" font-size="11.00">API_Connection_Manager</text>
</a>
</g>
<!-- \\API_Connection_Manager_Setup -->
<g id="node6" class="node"><title>\\API_Connection_Manager_Setup</title>
<a xlink:href="class-api-connection-manager-setup.html" xlink:title="API_Connection_Manager_Setup" target="_parent">
<polygon fill="none" stroke="black" points="448,-106 242,-106 242,-70 448,-70 448,-106"/>
<text text-anchor="middle" x="345" y="-85.1" font-family="Courier,monospace" font-size="11.00">API_Connection_Manager_Setup</text>
</a>
</g>
<!-- \\WP_List_Table -->
<g id="node11" class="node"><title>\\WP_List_Table</title>
<ellipse fill="none" stroke="black" cx="85" cy="-88" rx="84.8528" ry="18.3848"/>
<text text-anchor="middle" x="85" y="-84.4" font-family="Times Roman,serif" font-size="14.00" fill="gray">\WP_List_Table</text>
</g>
<!-- \\API_Connection_Manager_Setup&#45;&gt;\\WP_List_Table -->
<g id="edge5" class="edge"><title>\\API_Connection_Manager_Setup&#45;&gt;\\WP_List_Table</title>
<path fill="none" stroke="black" d="M241.868,-88C221.492,-88 200.194,-88 180.099,-88"/>
<polygon fill="none" stroke="black" points="180.027,-84.5001 170.027,-88 180.027,-91.5001 180.027,-84.5001"/>
</g>
<!-- \\API_Connection_Manager_User -->
<g id="node7" class="node"><title>\\API_Connection_Manager_User</title>
<a xlink:href="class-api-connection-manager-user.html" xlink:title="API_Connection_Manager_User" target="_parent">
<polygon fill="none" stroke="black" points="444,-52 246,-52 246,-16 444,-16 444,-52"/>
<text text-anchor="middle" x="345" y="-31.1" font-family="Courier,monospace" font-size="11.00">API_Connection_Manager_User</text>
</a>
</g>
</g>
</svg>
