<?xml version="1.0" encoding="UTF-8" standalone="no"?>
<!DOCTYPE svg PUBLIC "-//W3C//DTD SVG 1.1//EN"
 "http://www.w3.org/Graphics/SVG/1.1/DTD/svg11.dtd">
<!-- Generated by graphviz version 2.26.3 (20100126.1600)
 -->
<!-- Title: G Pages: 1 -->
<svg width="486pt" height="476pt"
 viewBox="0.00 0.00 486.00 476.00" xmlns="http://www.w3.org/2000/svg" xmlns:xlink="http://www.w3.org/1999/xlink">
<g id="graph1" class="graph" transform="scale(1 1) rotate(0) translate(4 472)">
<title>G</title>
<polygon fill="white" stroke="white" points="-4,5 -4,-472 483,-472 483,5 -4,5"/>
<g id="graph2" class="cluster"><title>cluster_global</title>
<polyline fill="none" stroke="gray" points="246,-8 458,-8 "/>
<path fill="none" stroke="gray" d="M458,-8C464,-8 470,-14 470,-20"/>
<polyline fill="none" stroke="gray" points="470,-20 470,-448 "/>
<path fill="none" stroke="gray" d="M470,-448C470,-454 464,-460 458,-460"/>
<polyline fill="none" stroke="gray" points="458,-460 246,-460 "/>
<path fill="none" stroke="gray" d="M246,-460C240,-460 234,-454 234,-448"/>
<polyline fill="none" stroke="gray" points="234,-448 234,-20 "/>
<path fill="none" stroke="gray" d="M234,-20C234,-14 240,-8 246,-8"/>
<text text-anchor="middle" x="352" y="-446.1" font-family="Times Roman,serif" font-size="11.00" fill="gray">global</text>
</g>
<!-- \\API_Con_Logger_Filter_Request -->
<g id="node2" class="node"><title>\\API_Con_Logger_Filter_Request</title>
<a xlink:href="class-api-con-logger-filter.html" xlink:title="API_Con_Logger_Filter_Request" target="_parent">
<polygon fill="none" stroke="black" points="458,-430 246,-430 246,-394 458,-394 458,-430"/>
<text text-anchor="middle" x="352" y="-409.1" font-family="Courier,monospace" font-size="11.00">API_Con_Logger_Filter_Request</text>
</a>
</g>
<!-- \\LoggerFilter -->
<g id="node11" class="node"><title>\\LoggerFilter</title>
<ellipse fill="none" stroke="black" cx="85" cy="-385" rx="72.832" ry="18.3848"/>
<text text-anchor="middle" x="85" y="-381.4" font-family="Times Roman,serif" font-size="14.00" fill="gray">\LoggerFilter</text>
</g>
<!-- \\API_Con_Logger_Filter_Request&#45;&gt;\\LoggerFilter -->
<g id="edge3" class="edge"><title>\\API_Con_Logger_Filter_Request&#45;&gt;\\LoggerFilter</title>
<path fill="none" stroke="black" d="M245.707,-401.251C218.105,-398.46 188.882,-395.505 163.033,-392.891"/>
<polygon fill="none" stroke="black" points="163.231,-389.393 152.93,-391.869 162.527,-396.358 163.231,-389.393"/>
</g>
<!-- \\API_Con_Logger_Filter_Response -->
<g id="node3" class="node"><title>\\API_Con_Logger_Filter_Response</title>
<a xlink:href="class-api-con-logger-filter.html" xlink:title="API_Con_Logger_Filter_Response" target="_parent">
<polygon fill="none" stroke="black" points="461,-376 243,-376 243,-340 461,-340 461,-376"/>
<text text-anchor="middle" x="352" y="-355.1" font-family="Courier,monospace" font-size="11.00">API_Con_Logger_Filter_Response</text>
</a>
</g>
<!-- \\API_Con_Logger_Filter_Response&#45;&gt;\\LoggerFilter -->
<g id="edge5" class="edge"><title>\\API_Con_Logger_Filter_Response&#45;&gt;\\LoggerFilter</title>
<path fill="none" stroke="black" d="M242.245,-369.099C215.571,-371.796 187.591,-374.626 162.75,-377.138"/>
<polygon fill="none" stroke="black" points="162.27,-373.668 152.673,-378.157 162.974,-380.633 162.27,-373.668"/>
</g>
<!-- \\API_Con_Mngr_Error -->
<g id="node4" class="node"><title>\\API_Con_Mngr_Error</title>
<a xlink:href="class-api-con-mngr-error.html" xlink:title="API_Con_Mngr_Error" target="_parent">
<polygon fill="none" stroke="black" points="421,-322 283,-322 283,-286 421,-286 421,-322"/>
<text text-anchor="middle" x="352" y="-301.1" font-family="Courier,monospace" font-size="11.00">API_Con_Mngr_Error</text>
</a>
</g>
<!-- \\WP_Error -->
<g id="node14" class="node"><title>\\WP_Error</title>
<ellipse fill="none" stroke="black" cx="85" cy="-304" rx="61.0181" ry="18.3848"/>
<text text-anchor="middle" x="85" y="-300.4" font-family="Times Roman,serif" font-size="14.00" fill="gray">\WP_Error</text>
</g>
<!-- \\API_Con_Mngr_Error&#45;&gt;\\WP_Error -->
<g id="edge7" class="edge"><title>\\API_Con_Mngr_Error&#45;&gt;\\WP_Error</title>
<path fill="none" stroke="black" d="M282.894,-304C244.089,-304 195.74,-304 156.546,-304"/>
<polygon fill="none" stroke="black" points="156.531,-300.5 146.531,-304 156.531,-307.5 156.531,-300.5"/>
</g>
<!-- \\API_Con_Mngr_Module -->
<g id="node5" class="node"><title>\\API_Con_Mngr_Module</title>
<a xlink:href="class-api-con-mngr-module.html" xlink:title="«abstract»&lt;br/&gt;API_Con_Mngr_Module" target="_parent">
<polygon fill="none" stroke="black" points="425,-268 279,-268 279,-232 425,-232 425,-268"/>
<text text-anchor="start" x="318" y="-255.433" font-family="Courier,monospace" font-size="11.00">«abstract»</text>
<text text-anchor="start" x="287.5" y="-242.233" font-family="Courier,monospace" font-size="11.00">API_Con_Mngr_Module</text>
</a>
</g>
<!-- \\API_Con_Mngr_View -->
<g id="node6" class="node"><title>\\API_Con_Mngr_View</title>
<a xlink:href="class-api-con-mngr-view.html" xlink:title="API_Con_Mngr_View" target="_parent">
<polygon fill="none" stroke="black" points="417,-214 287,-214 287,-178 417,-178 417,-214"/>
<text text-anchor="middle" x="352" y="-193.1" font-family="Courier,monospace" font-size="11.00">API_Con_Mngr_View</text>
</a>
</g>
<!-- \\API_Connection_Manager_Setup -->
<g id="node7" class="node"><title>\\API_Connection_Manager_Setup</title>
<a xlink:href="class-api-connection-manager-setup.html" xlink:title="API_Connection_Manager_Setup" target="_parent">
<polygon fill="none" stroke="black" points="455,-160 249,-160 249,-124 455,-124 455,-160"/>
<text text-anchor="middle" x="352" y="-139.1" font-family="Courier,monospace" font-size="11.00">API_Connection_Manager_Setup</text>
</a>
</g>
<!-- \\WP_List_Table -->
<g id="node16" class="node"><title>\\WP_List_Table</title>
<ellipse fill="none" stroke="black" cx="85" cy="-142" rx="84.8528" ry="18.3848"/>
<text text-anchor="middle" x="85" y="-138.4" font-family="Times Roman,serif" font-size="14.00" fill="gray">\WP_List_Table</text>
</g>
<!-- \\API_Connection_Manager_Setup&#45;&gt;\\WP_List_Table -->
<g id="edge9" class="edge"><title>\\API_Connection_Manager_Setup&#45;&gt;\\WP_List_Table</title>
<path fill="none" stroke="black" d="M248.771,-142C226.247,-142 202.509,-142 180.309,-142"/>
<polygon fill="none" stroke="black" points="180.228,-138.5 170.227,-142 180.227,-145.5 180.228,-138.5"/>
</g>
<!-- \\API_Connection_Manager_User -->
<g id="node8" class="node"><title>\\API_Connection_Manager_User</title>
<a xlink:href="class-api-connection-manager-user.html" xlink:title="API_Connection_Manager_User" target="_parent">
<polygon fill="none" stroke="black" points="451,-106 253,-106 253,-70 451,-70 451,-106"/>
<text text-anchor="middle" x="352" y="-85.1" font-family="Courier,monospace" font-size="11.00">API_Connection_Manager_User</text>
</a>
</g>
<!-- \\API_Connection_Manager -->
<g id="node9" class="node"><title>\\API_Connection_Manager</title>
<a xlink:href="class-api-connection-manager.html" xlink:title="API_Connection_Manager" target="_parent">
<polygon fill="none" stroke="black" points="434,-52 270,-52 270,-16 434,-16 434,-52"/>
<text text-anchor="middle" x="352" y="-31.1" font-family="Courier,monospace" font-size="11.00">API_Connection_Manager</text>
</a>
</g>
</g>
</svg>
